<?xml version="1.0" standalone="no"?>
<!DOCTYPE svg PUBLIC "-//W3C//DTD SVG 20010904//EN"
 "http://www.w3.org/TR/2001/REC-SVG-20010904/DTD/svg10.dtd">
<svg version="1.0" xmlns="http://www.w3.org/2000/svg"
 width="231.000000pt" height="252.000000pt" viewBox="0 0 231.000000 252.000000"
 preserveAspectRatio="xMidYMid meet">

<g transform="translate(0.000000,252.000000) scale(0.100000,-0.100000)"
fill="#000000" stroke="none">
<path d="M631 2474 c-65 -14 -96 -33 -106 -63 -3 -9 21 -148 53 -308 l59 -292
-76 5 c-150 12 -288 -43 -391 -152 -184 -197 -184 -481 0 -678 303 -323 850
-106 850 337 0 44 -36 238 -110 599 -120 580 -116 569 -184 567 -17 -1 -60 -7
-95 -15z m-21 -1017 c98 -65 97 -199 -1 -265 -44 -31 -129 -28 -176 6 -90 64
-79 217 19 265 49 24 118 22 158 -6z"/>
<path d="M1685 1820 c-107 -22 -195 -71 -267 -148 -83 -88 -65 -44 -385 -989
-80 -238 -81 -232 52 -280 96 -35 127 -34 150 1 10 16 195 540 195 553 0 10
26 -1 53 -21 176 -132 431 -127 602 12 69 56 138 151 161 225 25 81 30 212 9
283 -53 184 -195 322 -372 359 -74 16 -136 17 -198 5z m161 -346 c67 -32 102
-108 83 -177 -39 -143 -230 -165 -293 -33 -63 134 76 273 210 210z"/>
<path d="M445 575 c-33 -32 -32 -67 6 -134 98 -174 249 -307 409 -361 68 -23
209 -37 255 -26 53 13 66 109 18 134 -10 5 -56 12 -103 15 -186 11 -326 112
-453 323 -48 79 -88 94 -132 49z"/>
</g>
</svg>
